HIERARCHY
ROOT Hips
{
	OFFSET 0.000000 0.000000 0.000000
	CHANNELS 6 Xposition Yposition Zposition Yrotation Xrotation Zrotation
	JOINT Chest
	{
		OFFSET 0.000000 -0.009281 11.569106
		CHANNELS 3 Yrotation Xrotation Zrotation
		JOINT Chest2
		{
			OFFSET -0.000000 0.016865 9.269641
			CHANNELS 3 Yrotation Xrotation Zrotation
			JOINT Chest3
			{
				OFFSET -0.000000 0.000001 8.374491
				CHANNELS 3 Yrotation Xrotation Zrotation
				JOINT Chest4
				{
					OFFSET -0.000000 0.000001 8.374493
					CHANNELS 3 Yrotation Xrotation Zrotation
					JOINT Neck
					{
						OFFSET -0.000000 0.000002 12.152554
						CHANNELS 3 Yrotation Xrotation Zrotation
						JOINT Head
						{
							OFFSET -0.000000 0.040101 7.802319
							CHANNELS 3 Yrotation Xrotation Zrotation
							End Site
							{
								OFFSET -0.000000 0.020947 14.853096
							}
						}
					}
					JOINT RightCollar
					{
						OFFSET 2.894404 0.000001 6.791374
						CHANNELS 3 Yrotation Xrotation Zrotation
						JOINT RightShoulder
						{
							OFFSET 13.574684 0.000001 0.000000
							CHANNELS 3 Yrotation Xrotation Zrotation
							JOINT RightElbow
							{
								OFFSET 23.923903 0.000002 0.000000
								CHANNELS 3 Yrotation Xrotation Zrotation
								JOINT RightWrist
								{
									OFFSET 19.846718 0.012767 0.000000
									CHANNELS 3 Yrotation Xrotation Zrotation
									End Site
									{
										OFFSET 14.973145 0.000001 0.000000
									}
								}
							}
						}
					}
					JOINT LeftCollar
					{
						OFFSET -2.894404 0.000001 6.791374
						CHANNELS 3 Yrotation Xrotation Zrotation
						JOINT LeftShoulder
						{
							OFFSET -13.574684 -0.000001 0.000000
							CHANNELS 3 Yrotation Xrotation Zrotation
							JOINT LeftElbow
							{
								OFFSET -23.923903 -0.000002 0.000000
								CHANNELS 3 Yrotation Xrotation Zrotation
								JOINT LeftWrist
								{
									OFFSET -19.846718 0.012763 0.000000
									CHANNELS 3 Yrotation Xrotation Zrotation
									End Site
									{
										OFFSET -14.973145 -0.000001 0.000000
									}
								}
							}
						}
					}
				}
			}
		}
	}
	JOINT RightHip
	{
		OFFSET 9.469263 0.004643 0.045487
		CHANNELS 3 Yrotation Xrotation Zrotation
		JOINT RightKnee
		{
			OFFSET 0.000000 0.002661 -40.478676
			CHANNELS 3 Yrotation Xrotation Zrotation
			JOINT RightAnkle
			{
				OFFSET 0.000000 0.049106 -35.224068
				CHANNELS 3 Yrotation Xrotation Zrotation
				JOINT RightToe
				{
					OFFSET -0.000001 12.539529 -6.151390
					CHANNELS 3 Yrotation Xrotation Zrotation
					End Site
					{
						OFFSET -0.000001 5.044994 -1.291870
					}
				}
			}
		}
	}
	JOINT LeftHip
	{
		OFFSET -9.469263 0.004641 0.045487
		CHANNELS 3 Yrotation Xrotation Zrotation
		JOINT LeftKnee
		{
			OFFSET 0.000000 0.002661 -40.478676
			CHANNELS 3 Yrotation Xrotation Zrotation
			JOINT LeftAnkle
			{
				OFFSET 0.000000 0.049106 -35.224068
				CHANNELS 3 Yrotation Xrotation Zrotation
				JOINT LeftToe
				{
					OFFSET -0.000001 12.539529 -6.151390
					CHANNELS 3 Yrotation Xrotation Zrotation
					End Site
					{
						OFFSET -0.000001 5.044994 -1.291870
					}
				}
			}
		}
	}
}
MOTION
Frames: 15
Frame Time: 0.016667
0.101733 26.805998 82.900887 0.541164 -2.155068 -111.008148 -3.259670 1.214361 0.081332 -1.509700 0.258556 -0.328671 -1.509698 0.258556 -0.328671 -1.132136 0.194731 -0.245863 2.357952 -16.621259 -1.778299 3.743496 5.329971 -2.462576 10.272902 0.516120 -3.188646 62.928193 -29.164419 -18.866465 24.523046 -77.018203 50.285676 -12.448885 12.943729 35.599468 -8.153414 0.268643 -6.382062 -56.227241 -23.062682 14.971064 -86.903646 -55.119876 2.069542 9.091629 18.388468 -22.150467 7.033336 6.694264 -12.295289 5.048904 -2.181143 -17.742204 -3.928778 0.989014 -4.483347 -0.145381 -0.184772 -1.323166 2.172120 -16.347513 -3.709041 -1.031928 -14.780039 15.275812 12.131913 -24.749361 2.626999 -30.625725 51.819033 -14.404838 
0.274720 26.610825 82.799339 0.823396 -2.074957 -111.473093 -3.295536 1.255988 0.076253 -1.504394 0.273294 -0.337567 -1.504395 0.273294 -0.337564 -1.128141 0.205803 -0.252501 2.368631 -16.599848 -1.596581 3.827825 5.366723 -2.121351 10.258596 0.477782 -3.184068 62.868449 -29.155578 -18.790265 25.171207 -77.011646 49.706145 -12.304115 12.950067 35.551114 -8.194199 0.273949 -6.323717 -56.230755 -23.013002 15.146202 -86.883722 -55.075073 2.062497 9.112804 18.292227 -22.155628 7.165466 6.959874 -11.511592 5.157931 -2.521531 -17.155321 -4.326420 1.406482 -5.163459 0.029069 -0.310670 -1.205476 2.245135 -15.956054 -3.813600 -1.352165 -15.293902 15.710063 12.115559 -25.080837 2.659678 -31.168291 52.469196 -14.964944 
0.405607 26.397860 82.679787 1.050988 -2.038885 -111.890281 -3.334731 1.217703 0.028566 -1.492661 0.276519 -0.352015 -1.492660 0.276519 -0.352017 -1.119335 0.208250 -0.263338 2.376341 -16.574504 -1.399219 3.912344 5.410021 -1.751979 10.234469 0.441162 -3.173166 62.836948 -29.134326 -18.744870 25.839355 -76.960154 49.076323 -12.159851 12.919178 35.512578 -8.257571 0.288878 -6.279047 -56.205507 -22.949627 15.296977 -86.904281 -55.004596 2.123273 9.169902 18.208904 -22.232317 7.291692 7.219957 -10.462144 5.337132 -2.968587 -17.052238 -4.777667 1.980717 -5.524623 0.210908 -0.457711 -1.018425 2.380355 -15.433723 -3.980128 -1.680635 -16.144487 16.253858 11.964590 -25.323688 2.660209 -31.705841 53.163730 -15.505124 
0.447020 26.154392 82.549698 1.280843 -2.034049 -112.305611 -3.364074 1.177211 -0.022943 -1.475498 0.257049 -0.372345 -1.475497 0.257049 -0.372343 -1.106464 0.193688 -0.278636 2.379453 -16.533552 -1.183181 3.995252 5.481389 -1.349129 10.193057 0.359146 -3.170410 62.791015 -29.087511 -18.659831 26.242640 -76.892255 48.654446 -12.003285 12.868699 35.523172 -8.331748 0.277217 -6.191490 -56.168706 -22.932548 15.363022 -86.918802 -54.910411 2.194692 9.313766 18.114556 -22.376221 7.546617 7.397290 -9.342443 5.414634 -3.195697 -17.099744 -5.232249 2.467841 -5.614456 0.363112 -0.585807 -0.878060 2.608040 -14.631081 -4.161411 -2.045601 -17.437413 16.823709 11.717797 -25.595960 2.584111 -32.311969 54.037264 -16.100607 
0.362368 25.897764 82.425224 1.488537 -2.003828 -112.661218 -3.443769 1.132872 -0.144590 -1.457779 0.209502 -0.402496 -1.457780 0.209503 -0.402497 -1.093196 0.158089 -0.301372 2.380533 -16.475653 -0.940079 4.084484 5.582960 -0.896167 10.141858 0.245931 -3.151303 62.724735 -29.054593 -18.524597 26.217403 -76.799678 48.603992 -12.046732 13.074877 35.696020 -8.461670 0.253186 -6.073541 -56.147881 -22.986206 15.430217 -86.873094 -54.768466 2.225574 9.620327 17.952068 -22.608235 7.794576 7.627096 -8.242220 5.483742 -3.476704 -17.095755 -5.652032 2.996051 -5.531363 0.432028 -0.708018 -0.903938 2.887824 -13.476330 -4.438496 -2.428881 -19.169991 17.351238 11.301421 -26.164884 2.443190 -33.042044 55.268439 -16.811812 
0.180005 25.595215 82.318169 1.546067 -2.032818 -112.770392 -3.548050 0.924887 -0.498361 -1.449589 0.129815 -0.448593 -1.449589 0.129815 -0.448595 -1.087096 0.098426 -0.336139 2.388939 -16.405308 -0.663551 4.199885 5.705770 -0.377878 10.081505 0.104103 -3.143207 62.642117 -29.062858 -18.287466 25.873030 -76.696597 48.791856 -12.061227 13.172476 35.881849 -8.625241 0.171541 -5.970614 -56.161657 -23.084783 15.506732 -86.677635 -54.622536 2.150996 10.112875 17.733130 -22.968753 8.038998 7.784625 -7.505721 5.512837 -3.817372 -16.858650 -5.984708 3.488199 -5.429672 0.396996 -0.788004 -1.044713 3.260050 -12.083814 -4.971348 -2.695173 -21.352848 17.789192 10.624194 -27.257092 2.119627 -33.976653 57.055538 -17.768860 
0.012630 25.315388 82.116112 1.208070 -1.931928 -112.648213 -3.937799 0.409790 -1.059227 -1.449876 0.018557 -0.518437 -1.449876 0.018558 -0.518436 -1.087391 0.015148 -0.388785 2.389180 -16.346917 -0.339115 4.317613 5.803969 0.226501 9.978699 -0.059028 -3.157606 62.547177 -29.138202 -17.944852 25.223759 -76.620707 49.219955 -11.940631 13.052419 35.978950 -8.799270 0.029477 -5.841017 -56.231872 -23.240922 15.578275 -86.289536 -54.574905 1.939285 10.782509 17.549964 -23.451260 8.010426 7.728946 -7.256446 5.561284 -4.192177 -16.343290 -6.231796 3.650987 -5.175588 0.219866 -0.595059 -1.341034 3.380445 -10.611691 -5.567570 -2.725515 -24.047098 18.170125 9.543246 -28.880065 1.285275 -34.809482 59.590224 -18.787240 
-0.125934 24.990606 81.935257 0.847633 -2.146843 -112.600183 -4.075449 -0.260818 -1.545985 -1.458976 -0.109563 -0.608924 -1.458975 -0.109564 -0.608928 -1.094343 -0.080720 -0.456957 2.372492 -16.317149 0.041067 4.423663 5.846108 0.927719 9.857963 -0.322678 -3.173114 62.422301 -29.220714 -17.466505 24.113319 -76.545431 50.058661 -11.760701 12.952083 36.058669 -8.917145 -0.215734 -5.702823 -56.362755 -23.401041 15.616077 -85.697878 -54.628502 1.577677 11.553848 17.442174 -24.045462 8.223978 7.492919 -7.237097 5.648313 -4.506891 -15.724572 -6.444249 3.411189 -4.913048 0.024529 -0.128041 -1.640495 3.861977 -8.896272 -5.861142 -2.564595 -27.209725 18.370262 8.825245 -30.746865 0.347752 -37.077726 62.112504 -21.128710 
-0.146705 24.784195 81.767281 0.699249 -2.514128 -112.730886 -4.032834 -0.878158 -1.871794 -1.475129 -0.246306 -0.722416 -1.475127 -0.246306 -0.722413 -1.106637 -0.182987 -0.542408 2.335579 -16.294958 0.476332 4.511881 5.870964 1.723909 9.746723 -0.567473 -3.155297 62.307185 -29.350586 -16.982485 22.525701 -76.395475 51.363630 -11.495751 12.876853 36.135252 -8.968225 -0.514570 -5.565096 -56.532185 -23.531853 15.620556 -85.046456 -54.689509 1.155269 12.406891 17.388927 -24.756219 8.538119 7.330503 -7.151312 5.870635 -4.799469 -15.260840 -6.839150 3.276733 -5.011322 0.008022 0.143727 -1.654372 4.631769 -6.688926 -5.923022 -2.398541 -30.569348 18.045433 8.711625 -32.649564 0.600575 -42.154804 63.602892 -25.775261 
-0.073000 24.655491 81.564194 0.742430 -2.945227 -112.946884 -3.917837 -1.438934 -2.125791 -1.493563 -0.394111 -0.849172 -1.493563 -0.394110 -0.849169 -1.120717 -0.293511 -0.637843 2.288821 -16.279046 0.949256 4.595168 5.880912 2.586364 9.669125 -0.680350 -3.118208 62.208031 -29.527290 -16.576594 21.002630 -76.182742 52.640155 -11.195827 12.761129 36.201246 -9.035221 -0.738621 -5.500175 -56.730776 -23.654548 15.718316 -84.450979 -54.645086 0.756683 13.359987 17.288517 -25.584669 8.942098 7.268013 -6.975210 6.192614 -5.083008 -15.150775 -7.492331 3.380686 -5.310306 0.213346 0.165420 -1.267241 5.451838 -4.097672 -5.990338 -2.300165 -33.982882 17.015921 8.710261 -34.524711 1.627600 -47.924477 64.552896 -30.911749 
-0.002055 24.531883 81.361847 0.924109 -3.306352 -113.269432 -3.879760 -1.907805 -2.267122 -1.523211 -0.563143 -0.974054 -1.523210 -0.563143 -0.974055 -1.143301 -0.419934 -0.731944 2.257473 -16.267455 1.438411 4.712701 5.879096 3.484328 9.638370 -0.671024 -3.147139 62.066380 -29.659308 -16.179569 19.738596 -76.060126 53.688070 -10.903501 12.625290 36.259176 -9.142271 -0.718308 -5.514607 -56.957900 -23.834107 16.028111 -83.960025 -54.551587 0.477023 14.387908 17.151701 -26.450222 9.374842 7.365367 -6.618544 6.511885 -5.358014 -14.962236 -8.223058 3.453008 -5.940613 0.460756 0.134689 -0.769989 6.153163 -1.218151 -6.051283 -2.375915 -37.326721 15.734823 8.999028 -36.099008 2.269477 -52.560034 65.455786 -35.109409 
-0.005807 24.414618 81.172211 1.228834 -3.575176 -113.650940 -3.890461 -2.235967 -2.390227 -1.561733 -0.738201 -1.100931 -1.561732 -0.738201 -1.100928 -1.172617 -0.550844 -0.827574 2.208087 -16.286555 1.965438 4.808503 5.816648 4.444524 9.568360 -0.601308 -3.198829 61.913896 -29.734908 -15.812342 18.757479 -76.071539 54.444541 -10.617235 12.462745 36.341169 -9.326838 -0.667653 -5.534793 -57.176979 -23.986743 16.437687 -83.505462 -54.565097 0.302417 15.493176 17.072811 -27.315716 9.798597 7.673821 -5.963393 6.869709 -5.657001 -14.779824 -8.944021 3.433696 -6.811986 0.643619 0.131351 -0.398883 6.638058 1.829774 -6.112275 -2.593773 -40.405961 14.574676 9.901355 -36.678413 2.119089 -54.587596 66.024993 -37.126388 
-0.110644 24.280148 81.011589 1.593400 -3.820077 -114.009436 -3.890313 -2.500164 -2.571320 -1.622221 -0.927237 -1.214007 -1.622221 -0.927237 -1.214007 -1.218483 -0.692215 -0.912954 2.136169 -16.327132 2.522200 4.871105 5.711288 5.450309 9.444649 -0.533993 -3.309625 61.829686 -29.783887 -15.454672 17.855848 -76.149998 55.030708 -10.382724 12.257432 36.513993 -9.547345 -0.681748 -5.598370 -57.432458 -24.203532 16.888865 -82.786435 -54.753054 -0.093486 16.663853 17.100378 -28.103223 10.237815 8.111853 -5.228077 7.204494 -5.971279 -14.667725 -9.587709 3.236166 -7.433119 0.775543 0.232457 -0.131751 6.938417 4.849927 -6.148944 -2.561348 -42.839097 13.588425 10.792046 -36.175247 0.741200 -51.986844 66.477254 -35.569337 
-0.279751 24.146252 80.892227 1.865896 -4.035559 -114.400785 -3.955802 -2.862459 -2.727667 -1.724943 -1.152873 -1.295926 -1.724941 -1.152870 -1.295923 -1.296115 -0.861009 -0.975173 2.055574 -16.355192 3.098917 4.924491 5.625798 6.490320 9.384252 -0.551899 -3.440316 61.799258 -29.781903 -15.025760 16.855368 -76.168364 55.584141 -10.229768 12.025862 36.804946 -9.735039 -0.695600 -5.722264 -57.687655 -24.522722 17.283818 -81.860152 -54.999706 -0.687440 17.970424 17.134182 -28.753560 10.657791 8.483300 -4.603820 7.448099 -6.234735 -14.640184 -10.064618 2.921201 -7.681942 0.797494 0.395713 -0.002833 7.089166 7.666239 -6.075119 -2.069489 -44.448177 12.508461 11.581670 -35.313342 -1.003293 -47.122004 66.248388 -31.870308 
-0.449163 24.007416 80.816475 1.978586 -4.200581 -114.847199 -4.132217 -3.379315 -2.834754 -1.873521 -1.392635 -1.350258 -1.873520 -1.392634 -1.350257 -1.408157 -1.040355 -1.016924 1.959313 -16.389508 3.707731 4.958713 5.524858 7.583465 9.353604 -0.655267 -3.607981 61.915535 -29.863954 -14.602169 15.241130 -76.041384 56.635867 -10.070883 11.864179 37.180435 -9.831601 -0.836247 -5.838184 -57.852631 -24.846459 17.470328 -81.058561 -55.231409 -1.130342 19.493462 17.196511 -29.326114 10.997684 8.658302 -4.405860 7.563854 -6.415949 -14.487168 -10.362432 2.639698 -7.672222 0.711978 0.506288 0.018788 7.028059 10.258446 -5.957882 -1.323153 -45.462764 11.285505 12.061504 -33.554582 -2.094041 -41.084664 64.405877 -26.613175 
